<svg width="22" height="24" viewBox="0 0 22 24" fill="none" xmlns="http://www.w3.org/2000/svg">
<g filter="url(#filter0_d_348_15)">
<path fill-rule="evenodd" clip-rule="evenodd" d="M6.81415 4.96483C5.87233 5.21905 5.05346 5.44319 4.99445 5.46293C4.84162 5.51405 4.62867 5.71267 4.54094 5.8859C4.36581 6.23175 4.4218 6.53738 4.73753 6.95847C4.95455 7.24799 5.15846 7.63596 5.26102 7.95462C5.39087 8.35791 5.42386 8.59362 5.4212 9.09878C5.41897 9.52032 5.40902 9.61812 5.34337 9.86385C5.16466 10.5325 4.80816 11.053 4.29582 11.393C4.01674 11.5783 4.02014 11.5649 4.00934 12.5186L4 13.3461H5.00856C5.87374 13.3461 6.03877 13.3531 6.16959 13.3954C6.35008 13.4537 6.58349 13.652 6.67657 13.8261L6.74097 13.9465L6.74887 16.7219L6.75675 19.4973H11.0006H15.2444L15.2447 16.7512L15.245 14.0051L15.3134 13.8581C15.4032 13.6651 15.6335 13.459 15.8304 13.3954C15.9612 13.3531 16.1263 13.3461 16.9914 13.3461H18L17.9907 12.5186C17.9797 11.5497 17.9895 11.585 17.6664 11.3455C17.1347 10.9513 16.8098 10.4301 16.642 9.70225C16.5927 9.48827 16.5807 9.3402 16.581 8.95233C16.5814 8.52484 16.5903 8.43594 16.6579 8.18263C16.7826 7.71516 17.0123 7.27547 17.35 6.85797C17.7074 6.41608 17.601 5.77542 17.1275 5.51917C16.9827 5.44082 13.523 4.5 13.3796 4.5C13.221 4.5 13.1064 4.59019 12.9432 4.84333C12.6632 5.27769 12.3624 5.54504 11.932 5.74214C11.5979 5.89513 11.357 5.94583 10.9707 5.94443C10.1576 5.9415 9.46792 5.55087 9.0275 4.84374C8.88781 4.61945 8.79628 4.54482 8.62899 4.51866C8.55289 4.50674 8.08644 4.62141 6.81415 4.96483ZM14.1022 13.3974C14.4156 13.5549 14.4156 14.016 14.1022 14.1735C14.0072 14.2213 13.7981 14.2247 11 14.2247C7.65272 14.2247 7.8734 14.2383 7.72948 14.0228C7.59023 13.8142 7.67181 13.511 7.89779 13.3974C7.99277 13.3496 8.20189 13.3462 11 13.3462C13.7981 13.3462 14.0072 13.3496 14.1022 13.3974ZM4.0106 16.6926C4.0185 19.1001 4.02014 19.1629 4.07725 19.2599C4.10945 19.3146 4.17294 19.3871 4.21837 19.421C4.29679 19.4796 4.34078 19.4831 5.0892 19.4913L5.87746 19.5V16.8624V14.2248H4.93997H4.00246L4.0106 16.6926ZM16.1225 16.8624V19.5L16.9108 19.4913C17.6592 19.4831 17.7032 19.4796 17.7816 19.421C17.8271 19.3871 17.8906 19.3146 17.9228 19.2599C17.9799 19.1629 17.9815 19.1001 17.9894 16.6926L17.9975 14.2248H17.06H16.1225V16.8624ZM14.1022 15.1549C14.4156 15.3124 14.4156 15.7735 14.1022 15.931C14.0072 15.9788 13.7981 15.9822 11 15.9822C7.65272 15.9822 7.8734 15.9958 7.72948 15.7803C7.59023 15.5717 7.67181 15.2685 7.89779 15.1549C7.99277 15.1071 8.20189 15.1037 11 15.1037C13.7981 15.1037 14.0072 15.1071 14.1022 15.1549ZM14.1022 16.9124C14.4156 17.0699 14.4156 17.531 14.1022 17.6885C14.0072 17.7363 13.7981 17.7397 11 17.7397C7.65272 17.7397 7.8734 17.7533 7.72948 17.5378C7.59023 17.3292 7.67181 17.026 7.89779 16.9124C7.99277 16.8646 8.20189 16.8611 11 16.8611C13.7981 16.8611 14.0072 16.8646 14.1022 16.9124Z" fill="#D730F2"/>
</g>
<defs>
<filter id="filter0_d_348_15" x="0" y="0.5" width="22" height="23" filterUnits="userSpaceOnUse" color-interpolation-filters="sRGB">
<feFlood flood-opacity="0" result="BackgroundImageFix"/>
<feColorMatrix in="SourceAlpha" type="matrix" values="0 0 0 0 0 0 0 0 0 0 0 0 0 0 0 0 0 0 127 0" result="hardAlpha"/>
<feOffset/>
<feGaussianBlur stdDeviation="2"/>
<feComposite in2="hardAlpha" operator="out"/>
<feColorMatrix type="matrix" values="0 0 0 0 0 0 0 0 0 0 0 0 0 0 0 0 0 0 0.25 0"/>
<feBlend mode="normal" in2="BackgroundImageFix" result="effect1_dropShadow_348_15"/>
<feBlend mode="normal" in="SourceGraphic" in2="effect1_dropShadow_348_15" result="shape"/>
</filter>
</defs>
</svg>
