<svg width="128" height="101" viewBox="0 0 128 101" fill="none" xmlns="http://www.w3.org/2000/svg">
<path fill-rule="evenodd" clip-rule="evenodd" d="M30.3938 0.1357C18.8932 1.74641 9.51695 8.15533 4.03593 18.1508C2.49707 20.9575 1.46081 23.7321 0.673111 27.1527C0.0974109 29.6535 0.00906932 30.5879 0.000540442 34.259C-0.00798848 37.818 0.0803541 38.8645 0.557972 40.8846C2.17846 47.7316 5.90559 54.7117 11.6949 61.7426C17.4671 68.7533 26.9902 77.4117 36.779 84.5476C43.7927 89.6616 54.2156 96.3491 60.2255 99.5906C63.6395 101.433 64.2316 101.448 67.34 99.7609C81.1514 92.2681 98.1799 79.9434 107.962 70.3592C119.307 59.2454 125.291 49.9322 127.477 39.9864C128.138 36.9816 128.07 30.8139 127.34 27.4605C125.024 16.8262 118.126 8.01225 108.554 3.4564C105.527 2.01622 104.036 1.4912 100.879 0.755338C97.481 -0.0371669 91.487 -0.242149 87.9843 0.313248C83.9423 0.955075 79.0472 2.65046 75.861 4.51171C71.9705 6.7847 67.7736 10.4791 65.4013 13.7175C64.6745 14.7109 64.0196 15.5233 63.9465 15.5233C63.8734 15.5233 63.1978 14.6747 62.4448 13.6381C60.6501 11.1665 55.9227 6.86408 53.18 5.2061C49.038 2.70303 44.6054 1.06253 40.0035 0.330179C38.0345 0.0171481 32.1002 -0.103161 30.3938 0.1357Z" fill="#E42126"/>
</svg>
