<svg width="32" height="24" viewBox="0 0 32 24" fill="none" xmlns="http://www.w3.org/2000/svg">
<path d="M27.1071 2.42622C25.0356 1.52636 22.8207 0.872354 20.5052 0.5C20.2207 0.977377 19.8885 1.61945 19.6595 2.13024C17.198 1.78653 14.7591 1.78653 12.3429 2.13024C12.1139 1.61945 11.774 0.977377 11.4872 0.5C9.16907 0.872354 6.95167 1.52875 4.88026 2.43099C0.702192 8.29318 -0.430415 14.0098 0.135889 19.6452C2.907 21.5667 5.59254 22.7338 8.23277 23.4976C8.88465 22.6646 9.46605 21.7791 9.96693 20.8458C9.01302 20.5092 8.09938 20.094 7.23607 19.6117C7.46511 19.4543 7.68912 19.2896 7.90558 19.1201C13.171 21.4067 18.8918 21.4067 24.0944 19.1201C24.3132 19.2896 24.5373 19.4543 24.7638 19.6117C23.898 20.0963 22.9819 20.5116 22.0279 20.8482C22.5288 21.7791 23.1077 22.667 23.7621 23.5C26.4048 22.7362 29.0929 21.5691 31.864 19.6452C32.5285 13.1123 30.7289 7.44822 27.1071 2.42622ZM10.6842 16.1795C9.10363 16.1795 7.80742 14.8093 7.80742 13.141C7.80742 11.4725 9.07593 10.1001 10.6842 10.1001C12.2926 10.1001 13.5887 11.4701 13.561 13.141C13.5636 14.8093 12.2926 16.1795 10.6842 16.1795ZM21.3157 16.1795C19.735 16.1795 18.4388 14.8093 18.4388 13.141C18.4388 11.4725 19.7074 10.1001 21.3157 10.1001C22.9239 10.1001 24.2202 11.4701 24.1925 13.141C24.1925 14.8093 22.9239 16.1795 21.3157 16.1795Z" fill="white"/>
</svg>
