<svg width="81" height="102" viewBox="0 0 81 102" fill="none" xmlns="http://www.w3.org/2000/svg">
<path d="M67.153 9.1734L41.7798 0.382322C40.949 0.0948086 40.051 0.0948086 39.2202 0.382322L13.8429 9.1734C9.80948 10.5666 6.30108 13.2449 3.81607 16.828C1.33107 20.4111 -0.00417583 24.7167 9.81062e-06 29.1332V50.6669C9.81062e-06 82.4941 37.26 100.072 38.8557 100.804C39.3734 101.043 39.9335 101.167 40.5 101.167C41.0665 101.167 41.6266 101.043 42.1443 100.804C43.74 100.072 81 82.4941 81 50.6669V29.1332C81.0039 24.7162 79.6681 20.4102 77.1823 16.827C74.6965 13.2439 71.1872 10.5658 67.153 9.1734V9.1734Z" fill="#0078D4"/>
</svg>
