<svg width="28" height="28" viewBox="0 0 28 28" fill="none" xmlns="http://www.w3.org/2000/svg">
<path fill-rule="evenodd" clip-rule="evenodd" d="M14 28C21.732 28 28 21.732 28 14C28 6.26801 21.732 0 14 0C6.26801 0 0 6.26801 0 14C0 20.9003 4.99207 26.6346 11.5617 27.7884V18.2816H8V14.3301H11.5617V11.3184C11.5617 7.89294 13.6548 6 16.8603 6C18.3945 6 20 6.26699 20 6.26699V9.63107H18.2302C16.4877 9.63107 15.9452 10.6857 15.9452 11.767V14.3301H19.8356L19.2137 18.2816H15.9452V27.8345C15.27 27.9379 14.5801 27.9936 13.8779 27.9995C13.9185 27.9998 13.9593 28 14 28Z" fill="white"/>
</svg>
