<svg width="23" height="24" viewBox="0 0 23 24" fill="none" xmlns="http://www.w3.org/2000/svg">
<path d="M19.55 5.675C19.55 6.62769 18.7777 7.4 17.825 7.4C16.8723 7.4 16.1 6.62769 16.1 5.675C16.1 4.72231 16.8723 3.95 17.825 3.95C18.7777 3.95 19.55 4.72231 19.55 5.675Z" fill="white"/>
<path fill-rule="evenodd" clip-rule="evenodd" d="M11.5 17.75C14.6756 17.75 17.25 15.1756 17.25 12C17.25 8.82436 14.6756 6.25 11.5 6.25C8.32436 6.25 5.75 8.82436 5.75 12C5.75 15.1756 8.32436 17.75 11.5 17.75ZM11.5 15.45C13.4054 15.45 14.95 13.9054 14.95 12C14.95 10.0946 13.4054 8.55 11.5 8.55C9.59462 8.55 8.05 10.0946 8.05 12C8.05 13.9054 9.59462 15.45 11.5 15.45Z" fill="white"/>
<path fill-rule="evenodd" clip-rule="evenodd" d="M0 11.54C0 7.67564 0 5.74346 0.752055 4.26747C1.41358 2.96915 2.46915 1.91358 3.76747 1.25205C5.24346 0.5 7.17564 0.5 11.04 0.5H11.96C15.8244 0.5 17.7565 0.5 19.2325 1.25205C20.5309 1.91358 21.5864 2.96915 22.2479 4.26747C23 5.74346 23 7.67564 23 11.54V12.46C23 16.3244 23 18.2565 22.2479 19.7325C21.5864 21.0309 20.5309 22.0864 19.2325 22.7479C17.7565 23.5 15.8244 23.5 11.96 23.5H11.04C7.17564 23.5 5.24346 23.5 3.76747 22.7479C2.46915 22.0864 1.41358 21.0309 0.752055 19.7325C0 18.2565 0 16.3244 0 12.46V11.54ZM11.04 2.8H11.96C13.9301 2.8 15.2694 2.80179 16.3046 2.88637C17.313 2.96875 17.8286 3.11808 18.1884 3.30137C19.0539 3.74239 19.7576 4.4461 20.1986 5.31164C20.3819 5.67136 20.5312 6.18703 20.6136 7.19539C20.6982 8.23059 20.7 9.56987 20.7 11.54V12.46C20.7 14.4301 20.6982 15.7694 20.6136 16.8046C20.5312 17.813 20.3819 18.3286 20.1986 18.6884C19.7576 19.5539 19.0539 20.2576 18.1884 20.6986C17.8286 20.8819 17.313 21.0312 16.3046 21.1136C15.2694 21.1982 13.9301 21.2 11.96 21.2H11.04C9.06987 21.2 7.73059 21.1982 6.69539 21.1136C5.68703 21.0312 5.17136 20.8819 4.81164 20.6986C3.9461 20.2576 3.24239 19.5539 2.80137 18.6884C2.61808 18.3286 2.46875 17.813 2.38637 16.8046C2.30179 15.7694 2.3 14.4301 2.3 12.46V11.54C2.3 9.56987 2.30179 8.23059 2.38637 7.19539C2.46875 6.18703 2.61808 5.67136 2.80137 5.31164C3.24239 4.4461 3.9461 3.74239 4.81164 3.30137C5.17136 3.11808 5.68703 2.96875 6.69539 2.88637C7.73059 2.80179 9.06987 2.8 11.04 2.8Z" fill="white"/>
</svg>
