<svg width="76" height="76" viewBox="0 0 76 76" fill="none" xmlns="http://www.w3.org/2000/svg">
<rect x="0.58849" y="0.775502" width="74.1498" height="74.1498" fill="url(#paint0_linear_36_47)" stroke="#FF5050" stroke-width="1.17698"/>
<g clip-path="url(#clip0_36_47)">
<path d="M45.7326 33.8971L36.3776 27.0373C35.6469 26.5022 34.7823 26.18 33.8797 26.1062C32.9771 26.0324 32.0717 26.2101 31.2638 26.6194C30.4559 27.0287 29.7772 27.6537 29.3028 28.4252C28.8284 29.1966 28.5769 30.0843 28.5762 30.99V44.7165C28.5748 45.623 28.825 46.5122 29.2989 47.2849C29.7728 48.0577 30.4519 48.6838 31.2606 49.0935C32.0692 49.5032 32.9757 49.6805 33.8791 49.6056C34.7826 49.5307 35.6475 49.2065 36.3776 48.6692L45.7326 41.8094C46.3534 41.3538 46.8581 40.7585 47.206 40.0717C47.554 39.3848 47.7352 38.6257 47.7352 37.8557C47.7352 37.0857 47.554 36.3266 47.206 35.6397C46.8581 34.9529 46.3534 34.3576 45.7326 33.902V33.8971Z" fill="white"/>
</g>
<defs>
<linearGradient id="paint0_linear_36_47" x1="0" y1="37.8504" x2="75.3267" y2="37.8504" gradientUnits="userSpaceOnUse">
<stop stop-color="#FF5050"/>
<stop offset="1" stop-color="#FF5050" stop-opacity="0.4"/>
</linearGradient>
<clipPath id="clip0_36_47">
<rect width="23.5396" height="23.5396" fill="white" transform="translate(25.6337 26.0806)"/>
</clipPath>
</defs>
</svg>
