<svg width="36" height="22" viewBox="0 0 36 22" fill="none" xmlns="http://www.w3.org/2000/svg">
<path d="M19.6077 22C7.30793 22 0.292317 13.7417 0 0H6.16115C6.36352 10.0861 10.9057 14.3584 14.5034 15.2392V0H20.3048V8.6987C23.8576 8.32432 27.5903 4.36036 28.8495 0H34.6508C34.1763 2.26141 33.2305 4.4026 31.8724 6.28964C30.5144 8.17669 28.7734 9.769 26.7583 10.967C29.0076 12.0616 30.9943 13.6109 32.5874 15.5127C34.1804 17.4146 35.3435 19.6256 36 22H29.614C29.0247 19.9377 27.827 18.0916 26.171 16.693C24.515 15.2945 22.4743 14.4057 20.3048 14.1381V22H19.6077Z" fill="white"/>
</svg>
